<?xml version="1.0"?>
<svg version="1.1" width="500" height="500" xmlns="http://www.w3.org/2000/svg">
<path fill="none" stroke="blue" d="M150.000000,300.000000 L152.469131,300.000000 M152.469131,300.000000 L153.703705,295.725922 M153.703705,295.725922 L154.938278,300.000000 M154.938278,300.000000 L157.407410,300.000000 M157.407410,300.000000 L158.641983,295.725922 M158.641983,295.725922 L151.860855,291.451874 M151.860855,291.451874 L159.876541,291.451874 M159.876541,291.451874 L161.111115,287.177795 M161.111115,287.177795 L162.345673,291.451874 M162.345673,291.451874 L170.361359,291.451874 M170.361359,291.451874 L163.580246,295.725922 M163.580246,295.725922 L164.814804,300.000000 M164.814804,300.000000 L167.283936,300.000000 M167.283936,300.000000 L168.518509,295.725922 M168.518509,295.725922 L169.753082,300.000000 M169.753082,300.000000 L172.222214,300.000000 M172.222214,300.000000 L173.456787,295.725922 M173.456787,295.725922 L166.675644,291.451843 M166.675644,291.451843 L174.691345,291.451843 M174.691345,291.451843 L175.925919,287.177765 M175.925919,287.177765 L169.144775,282.903687 M169.144775,282.903687 L158.355804,292.504822 M158.355804,292.504822 L162.363647,278.629639 M162.363647,278.629639 L155.582504,274.355560 M155.582504,274.355560 L163.598206,274.355560 M163.598206,274.355560 L167.606064,260.480377 M167.606064,260.480377 L171.613922,274.355560 M171.613922,274.355560 L179.629623,274.355560 M179.629623,274.355560 L180.864197,270.081482 M180.864197,270.081482 L174.083054,265.807434 M174.083054,265.807434 L182.098755,265.807404 M182.098755,265.807404 L183.333328,261.533325 M183.333328,261.533325 L184.567902,265.807404 M184.567902,265.807404 L192.583603,265.807434 M192.583603,265.807434 L185.802460,270.081482 M185.802460,270.081482 L187.037033,274.355560 M187.037033,274.355560 L195.052734,274.355560 M195.052734,274.355560 L199.060593,260.480377 M199.060593,260.480377 L203.068451,274.355560 M203.068451,274.355560 L211.084152,274.355560 M211.084152,274.355560 L204.303009,278.629639 M204.303009,278.629639 L208.310852,292.504822 M208.310852,292.504822 L197.521881,282.903687 M197.521881,282.903687 L190.740738,287.177765 M190.740738,287.177765 L191.975311,291.451843 M191.975311,291.451843 L199.991013,291.451843 M199.991013,291.451843 L193.209869,295.725922 M193.209869,295.725922 L194.444443,300.000000 M194.444443,300.000000 L196.913574,300.000000 M196.913574,300.000000 L198.148148,295.725922 M198.148148,295.725922 L199.382721,300.000000 M199.382721,300.000000 L201.851852,300.000000 M201.851852,300.000000 L203.086426,295.725922 M203.086426,295.725922 L196.305298,291.451874 M196.305298,291.451874 L204.320984,291.451874 M204.320984,291.451874 L205.555557,287.177795 M205.555557,287.177795 L206.790115,291.451874 M206.790115,291.451874 L214.805801,291.451874 M214.805801,291.451874 L208.024689,295.725922 M208.024689,295.725922 L209.259247,300.000000 M209.259247,300.000000 L211.728378,300.000000 M211.728378,300.000000 L212.962952,295.725922 M212.962952,295.725922 L214.197525,300.000000 M214.197525,300.000000 L216.666656,300.000000 M216.666656,300.000000 L217.901230,295.725922 M217.901230,295.725922 L211.120087,291.451843 M211.120087,291.451843 L219.135788,291.451843 M219.135788,291.451843 L220.370361,287.177765 M220.370361,287.177765 L213.589218,282.903687 M213.589218,282.903687 L202.800247,292.504822 M202.800247,292.504822 L206.808090,278.629639 M206.808090,278.629639 L200.026947,274.355560 M200.026947,274.355560 L208.042648,274.355560 M208.042648,274.355560 L212.050507,260.480377 M212.050507,260.480377 L216.058365,274.355560 M216.058365,274.355560 L224.074066,274.355560 M224.074066,274.355560 L225.308640,270.081482 M225.308640,270.081482 L218.527496,265.807434 M218.527496,265.807434 L226.543198,265.807404 M226.543198,265.807404 L227.777771,261.533325 M227.777771,261.533325 L220.996628,257.259247 M220.996628,257.259247 L210.207642,266.860352 M210.207642,266.860352 L214.215500,252.985184 M214.215500,252.985184 L207.434357,248.711105 M207.434357,248.711105 L196.645370,258.312225 M196.645370,258.312225 L207.870392,281.788544 M207.870392,281.788544 L185.856369,267.913330 M185.856369,267.913330 L175.067383,277.514435 M175.067383,277.514435 L179.075241,263.639252 M179.075241,263.639252 L157.061218,249.764069 M157.061218,249.764069 L183.083084,249.764053 M183.083084,249.764053 L187.090942,235.888870 M187.090942,235.888870 L180.309799,231.614792 M180.309799,231.614792 L169.520813,241.215897 M169.520813,241.215897 L173.528671,227.340729 M173.528671,227.340729 L166.747528,223.066650 M166.747528,223.066650 L174.763229,223.066650 M174.763229,223.066650 L178.771103,209.191467 M178.771103,209.191467 L182.778946,223.066666 M182.778946,223.066666 L190.794647,223.066666 M190.794647,223.066666 L194.802505,209.191483 M194.802505,209.191483 L172.788483,195.316284 M172.788483,195.316284 L198.810364,195.316299 M198.810364,195.316299 L202.818222,181.441116 M202.818222,181.441116 L206.826065,195.316299 M206.826065,195.316299 L232.847931,195.316315 M232.847931,195.316315 L210.833908,209.191483 M210.833908,209.191483 L214.841751,223.066666 M214.841751,223.066666 L222.857452,223.066666 M222.857452,223.066666 L226.865326,209.191483 M226.865326,209.191483 L230.873169,223.066681 M230.873169,223.066681 L238.888870,223.066681 M238.888870,223.066681 L240.123444,218.792603 M240.123444,218.792603 L233.342300,214.518524 M233.342300,214.518524 L241.358002,214.518539 M241.358002,214.518539 L242.592575,210.244461 M242.592575,210.244461 L235.811432,205.970383 M235.811432,205.970383 L225.022446,215.571487 M225.022446,215.571487 L229.030304,201.696304 M229.030304,201.696304 L222.249161,197.422226 M222.249161,197.422226 L230.264862,197.422226 M230.264862,197.422226 L234.272720,183.547043 M234.272720,183.547043 L238.280579,197.422226 M238.280579,197.422226 L246.296280,197.422226 M246.296280,197.422226 L247.530853,193.148148 M247.530853,193.148148 L240.749710,188.874069 M240.749710,188.874069 L248.765411,188.874084 M248.765411,188.874084 L249.999985,184.600006 M249.999985,184.600006 L251.234558,188.874084 M251.234558,188.874084 L259.250244,188.874084 M259.250244,188.874084 L252.469116,193.148148 M252.469116,193.148148 L253.703690,197.422226 M253.703690,197.422226 L261.719391,197.422226 M261.719391,197.422226 L265.727234,183.547043 M265.727234,183.547043 L269.735107,197.422241 M269.735107,197.422241 L277.750793,197.422241 M277.750793,197.422241 L270.969666,201.696304 M270.969666,201.696304 L274.977509,215.571487 M274.977509,215.571487 L264.188507,205.970383 M264.188507,205.970383 L257.407379,210.244446 M257.407379,210.244446 L258.641937,214.518524 M258.641937,214.518524 L266.657623,214.518524 M266.657623,214.518524 L259.876526,218.792587 M259.876526,218.792587 L261.111084,223.066666 M261.111084,223.066666 L269.126801,223.066666 M269.126801,223.066666 L273.134644,209.191483 M273.134644,209.191483 L277.142487,223.066666 M277.142487,223.066666 L285.158203,223.066666 M285.158203,223.066666 L289.166046,209.191483 M289.166046,209.191483 L267.152039,195.316299 M267.152039,195.316299 L293.173920,195.316299 M293.173920,195.316299 L297.181763,181.441116 M297.181763,181.441116 L301.189606,195.316299 M301.189606,195.316299 L327.211487,195.316315 M327.211487,195.316315 L305.197449,209.191483 M305.197449,209.191483 L309.205292,223.066666 M309.205292,223.066666 L317.221008,223.066666 M317.221008,223.066666 L321.228851,209.191483 M321.228851,209.191483 L325.236694,223.066666 M325.236694,223.066666 L333.252411,223.066666 M333.252411,223.066666 L326.471283,227.340744 M326.471283,227.340744 L330.479126,241.215927 M330.479126,241.215927 L319.690125,231.614807 M319.690125,231.614807 L312.908997,235.888885 M312.908997,235.888885 L316.916840,249.764069 M316.916840,249.764069 L342.938721,249.764069 M342.938721,249.764069 L320.924713,263.639252 M320.924713,263.639252 L324.932556,277.514435 M324.932556,277.514435 L314.143585,267.913330 M314.143585,267.913330 L292.129578,281.788483 M292.129578,281.788483 L303.354584,258.312225 M303.354584,258.312225 L292.565613,248.711105 M292.565613,248.711105 L285.784485,252.985184 M285.784485,252.985184 L289.792328,266.860382 M289.792328,266.860382 L279.003326,257.259247 M279.003326,257.259247 L272.222198,261.533325 M272.222198,261.533325 L273.456757,265.807404 M273.456757,265.807404 L281.472473,265.807434 M281.472473,265.807434 L274.691345,270.081482 M274.691345,270.081482 L275.925903,274.355560 M275.925903,274.355560 L283.941620,274.355560 M283.941620,274.355560 L287.949463,260.480347 M287.949463,260.480347 L291.957336,274.355560 M291.957336,274.355560 L299.973053,274.355560 M299.973053,274.355560 L293.191895,278.629639 M293.191895,278.629639 L297.199738,292.504822 M297.199738,292.504822 L286.410767,282.903687 M286.410767,282.903687 L279.629608,287.177765 M279.629608,287.177765 L280.864166,291.451843 M280.864166,291.451843 L288.879883,291.451843 M288.879883,291.451843 L282.098755,295.725922 M282.098755,295.725922 L283.333313,300.000000 M283.333313,300.000000 L285.802460,300.000000 M285.802460,300.000000 L287.037018,295.725922 M287.037018,295.725922 L288.271576,300.000000 M288.271576,300.000000 L290.740723,300.000000 M290.740723,300.000000 L291.975281,295.725922 M291.975281,295.725922 L285.194122,291.451843 M285.194122,291.451843 L293.209869,291.451843 M293.209869,291.451843 L294.444427,287.177765 M294.444427,287.177765 L295.678986,291.451843 M295.678986,291.451843 L303.694702,291.451843 M303.694702,291.451843 L296.913574,295.725922 M296.913574,295.725922 L298.148132,300.000000 M298.148132,300.000000 L300.617279,300.000000 M300.617279,300.000000 L301.851837,295.725922 M301.851837,295.725922 L303.086395,300.000000 M303.086395,300.000000 L305.555542,300.000000 M305.555542,300.000000 L306.790100,295.725922 M306.790100,295.725922 L300.008942,291.451843 M300.008942,291.451843 L308.024689,291.451843 M308.024689,291.451843 L309.259247,287.177765 M309.259247,287.177765 L302.478088,282.903687 M302.478088,282.903687 L291.689117,292.504822 M291.689117,292.504822 L295.696960,278.629639 M295.696960,278.629639 L288.915802,274.355560 M288.915802,274.355560 L296.931519,274.355560 M296.931519,274.355560 L300.939392,260.480347 M300.939392,260.480347 L304.947235,274.355560 M304.947235,274.355560 L312.962952,274.355560 M312.962952,274.355560 L314.197510,270.081482 M314.197510,270.081482 L307.416351,265.807434 M307.416351,265.807434 L315.432098,265.807404 M315.432098,265.807404 L316.666656,261.533325 M316.666656,261.533325 L317.901215,265.807404 M317.901215,265.807404 L325.916931,265.807434 M325.916931,265.807434 L319.135803,270.081482 M319.135803,270.081482 L320.370361,274.355560 M320.370361,274.355560 L328.386078,274.355560 M328.386078,274.355560 L332.393921,260.480347 M332.393921,260.480347 L336.401794,274.355560 M336.401794,274.355560 L344.417511,274.355560 M344.417511,274.355560 L337.636353,278.629639 M337.636353,278.629639 L341.644196,292.504822 M341.644196,292.504822 L330.855225,282.903687 M330.855225,282.903687 L324.074066,287.177765 M324.074066,287.177765 L325.308624,291.451843 M325.308624,291.451843 L333.324341,291.451843 M333.324341,291.451843 L326.543213,295.725922 M326.543213,295.725922 L327.777771,300.000000 M327.777771,300.000000 L330.246918,300.000000 M330.246918,300.000000 L331.481476,295.725922 M331.481476,295.725922 L332.716034,300.000000 M332.716034,300.000000 L335.185181,300.000000 M335.185181,300.000000 L336.419739,295.725922 M336.419739,295.725922 L329.638580,291.451843 M329.638580,291.451843 L337.654327,291.451843 M337.654327,291.451843 L338.888885,287.177765 M338.888885,287.177765 L340.123444,291.451843 M340.123444,291.451843 L348.139160,291.451843 M348.139160,291.451843 L341.358032,295.725922 M341.358032,295.725922 L342.592590,300.000000 M342.592590,300.000000 L345.061737,300.000000 M345.061737,300.000000 L346.296295,295.725922 M346.296295,295.725922 L347.530853,300.000000 M347.530853,300.000000 L350.000000,300.000000 M350.000000,300.000000 L348.765442,298.148163 M348.765442,298.148163 L344.942627,299.359253 M344.942627,299.359253 L347.530853,296.296295 M347.530853,296.296295 L346.296295,294.444458 M346.296295,294.444458 L342.473450,295.655579 M342.473450,295.655579 L342.658478,302.878479 M342.658478,302.878479 L338.650635,296.866669 M338.650635,296.866669 L334.827789,298.077789 M334.827789,298.077789 L337.416046,295.014832 M337.416046,295.014832 L333.408173,289.003052 M333.408173,289.003052 L340.004333,291.951843 M340.004333,291.951843 L342.592590,288.888885 M342.592590,288.888885 L341.358032,287.037048 M341.358032,287.037048 L337.535217,288.248138 M337.535217,288.248138 L340.123444,285.185181 M340.123444,285.185181 L338.888885,283.333344 M338.888885,283.333344 L335.066040,284.544464 M335.066040,284.544464 L335.251038,291.767365 M335.251038,291.767365 L331.243195,285.755554 M331.243195,285.755554 L327.420349,286.966675 M327.420349,286.966675 L327.605377,294.189575 M327.605377,294.189575 L340.200714,297.480774 M340.200714,297.480774 L327.790375,301.412445 M327.790375,301.412445 L327.975403,308.635345 M327.975403,308.635345 L323.967560,302.623566 M323.967560,302.623566 L311.557220,306.555267 M311.557220,306.555267 L319.959686,296.611786 M319.959686,296.611786 L315.951843,290.600006 M315.951843,290.600006 L312.128998,291.811127 M312.128998,291.811127 L312.314026,299.034027 M312.314026,299.034027 L308.306152,293.022217 M308.306152,293.022217 L304.483307,294.233337 M304.483307,294.233337 L307.071594,291.170380 M307.071594,291.170380 L303.063721,285.158569 M303.063721,285.158569 L309.659851,288.107391 M309.659851,288.107391 L312.248138,285.044434 M312.248138,285.044434 L308.240295,279.032654 M308.240295,279.032654 L295.829956,282.964355 M295.829956,282.964355 L304.232422,273.020844 M304.232422,273.020844 L300.224579,267.009064 M300.224579,267.009064 L306.820709,269.957886 M306.820709,269.957886 L315.223206,260.014435 M315.223206,260.014435 L313.416809,272.906738 M313.416809,272.906738 L320.012939,275.855560 M320.012939,275.855560 L322.601227,272.792603 M322.601227,272.792603 L318.593353,266.780792 M318.593353,266.780792 L325.189484,269.729614 M325.189484,269.729614 L327.777771,266.666656 M327.777771,266.666656 L326.543213,264.814819 M326.543213,264.814819 L322.720398,266.025909 M322.720398,266.025909 L325.308624,262.962952 M325.308624,262.962952 L324.074066,261.111115 M324.074066,261.111115 L320.251221,262.322235 M320.251221,262.322235 L320.436249,269.545135 M320.436249,269.545135 L316.428406,263.533325 M316.428406,263.533325 L312.605560,264.744446 M312.605560,264.744446 L315.193817,261.681488 M315.193817,261.681488 L311.185944,255.669708 M311.185944,255.669708 L317.782104,258.618530 M317.782104,258.618530 L320.370361,255.555557 M320.370361,255.555557 L319.135803,253.703705 M319.135803,253.703705 L315.312958,254.914810 M315.312958,254.914810 L317.901215,251.851852 M317.901215,251.851852 L316.666656,250.000000 M316.666656,250.000000 L312.843811,251.211105 M312.843811,251.211105 L313.028839,258.433990 M313.028839,258.433990 L309.020996,252.422226 M309.020996,252.422226 L305.198151,253.633331 M305.198151,253.633331 L305.383179,260.856232 M305.383179,260.856232 L317.978516,264.147430 M317.978516,264.147430 L305.568176,268.079102 M305.568176,268.079102 L305.753204,275.302002 M305.753204,275.302002 L301.745331,269.290222 M301.745331,269.290222 L289.334991,273.221954 M289.334991,273.221954 L297.737488,263.278442 M297.737488,263.278442 L293.729614,257.266663 M293.729614,257.266663 L289.906769,258.477783 M289.906769,258.477783 L290.091797,265.700684 M290.091797,265.700684 L286.083954,259.688873 M286.083954,259.688873 L282.261108,260.899994 M282.261108,260.899994 L282.446136,268.122894 M282.446136,268.122894 L295.041473,271.414093 M295.041473,271.414093 L282.631134,275.345764 M282.631134,275.345764 L282.816162,282.568665 M282.816162,282.568665 L295.411499,285.859863 M295.411499,285.859863 L307.406219,265.702942 M307.406219,265.702942 L308.006836,289.151031 M308.006836,289.151031 L320.602173,292.442230 M320.602173,292.442230 L308.191833,296.373932 M308.191833,296.373932 L308.792450,319.822052 M308.792450,319.822052 L295.781525,300.305634 M295.781525,300.305634 L283.371185,304.237335 M283.371185,304.237335 L283.556213,311.460236 M283.556213,311.460236 L296.151550,314.751434 M296.151550,314.751434 L283.741211,318.683105 M283.741211,318.683105 L283.926239,325.906006 M283.926239,325.906006 L279.918396,319.894226 M279.918396,319.894226 L267.508057,323.825928 M267.508057,323.825928 L275.910522,313.882446 M275.910522,313.882446 L271.902679,307.870667 M271.902679,307.870667 L259.492371,311.802368 M259.492371,311.802368 L260.092987,335.250458 M260.092987,335.250458 L247.082047,315.734070 M247.082047,315.734070 L234.671738,319.665771 M234.671738,319.665771 L243.074203,309.722290 M243.074203,309.722290 L230.063293,290.205902 M230.063293,290.205902 L251.476654,299.778839 M251.476654,299.778839 L259.879120,289.835358 M259.879120,289.835358 L255.871262,283.823578 M255.871262,283.823578 L243.460953,287.755280 M243.460953,287.755280 L251.863419,277.811798 M251.863419,277.811798 L247.855560,271.800018 M247.855560,271.800018 L244.032715,273.011139 M244.032715,273.011139 L244.217728,280.234039 M244.217728,280.234039 L240.209885,274.222229 M240.209885,274.222229 L236.387039,275.433350 M236.387039,275.433350 L236.572052,282.656250 M236.572052,282.656250 L249.167374,285.947449 M249.167374,285.947449 L236.757050,289.879120 M236.757050,289.879120 L236.942062,297.102020 M236.942062,297.102020 L232.934219,291.090240 M232.934219,291.090240 L220.523911,295.021942 M220.523911,295.021942 L228.926361,285.078461 M228.926361,285.078461 L224.918518,279.066681 M224.918518,279.066681 L221.095673,280.277802 M221.095673,280.277802 L221.280685,287.500702 M221.280685,287.500702 L217.272842,281.488892 M217.272842,281.488892 L213.449997,282.700012 M213.449997,282.700012 L216.038269,279.637054 M216.038269,279.637054 L212.030396,273.625275 M212.030396,273.625275 L218.626541,276.574066 M218.626541,276.574066 L221.214813,273.511108 M221.214813,273.511108 L217.206970,267.499329 M217.206970,267.499329 L204.796646,271.431030 M204.796646,271.431030 L213.199112,261.487549 M213.199112,261.487549 L209.191269,255.475754 M209.191269,255.475754 L215.787384,258.424591 M215.787384,258.424591 L224.189865,248.481140 M224.189865,248.481140 L222.383514,261.373413 M222.383514,261.373413 L228.979630,264.322235 M228.979630,264.322235 L231.567902,261.259277 M231.567902,261.259277 L227.560043,255.247482 M227.560043,255.247482 L234.156174,258.196320 M234.156174,258.196320 L236.744446,255.133347 M236.744446,255.133347 L232.736588,249.121567 M232.736588,249.121567 L220.326279,253.053268 M220.326279,253.053268 L228.728745,243.109787 M228.728745,243.109787 L224.720886,237.098007 M224.720886,237.098007 L212.310562,241.029709 M212.310562,241.029709 L212.911194,264.477814 M212.911194,264.477814 L199.900253,244.961426 M199.900253,244.961426 L187.489929,248.893127 M187.489929,248.893127 L195.892395,238.949631 M195.892395,238.949631 L182.881439,219.433228 M182.881439,219.433228 L204.294846,229.006149 M204.294846,229.006149 L212.697311,219.062653 M212.697311,219.062653 L208.689453,213.050873 M208.689453,213.050873 L196.279144,216.982574 M196.279144,216.982574 L204.681610,207.039093 M204.681610,207.039093 L200.673752,201.027313 M200.673752,201.027313 L207.269882,203.976135 M207.269882,203.976135 L215.672348,194.032654 M215.672348,194.032654 L213.865997,206.924942 M213.865997,206.924942 L220.462128,209.873764 M220.462128,209.873764 L228.864594,199.930283 M228.864594,199.930283 L215.853653,180.413879 M215.853653,180.413879 L237.267059,189.986801 M237.267059,189.986801 L245.669525,180.043320 M245.669525,180.043320 L243.863190,192.935623 M243.863190,192.935623 L265.276581,202.508545 M265.276581,202.508545 L242.056839,205.827911 M242.056839,205.827911 L240.250504,218.720215 M240.250504,218.720215 L246.846634,221.669037 M246.846634,221.669037 L255.249100,211.725555 M255.249100,211.725555 L253.442749,224.617844 M253.442749,224.617844 L260.038879,227.566666 M260.038879,227.566666 L262.627167,224.503708 M262.627167,224.503708 L258.619293,218.491928 M258.619293,218.491928 L265.215424,221.440735 M265.215424,221.440735 L267.803711,218.377777 M267.803711,218.377777 L263.795868,212.365997 M263.795868,212.365997 L251.385529,216.297699 M251.385529,216.297699 L259.788025,206.354202 M259.788025,206.354202 L255.780167,200.342422 M255.780167,200.342422 L262.376282,203.291245 M262.376282,203.291245 L270.778748,193.347778 M270.778748,193.347778 L268.972412,206.240067 M268.972412,206.240067 L275.568512,209.188889 M275.568512,209.188889 L278.156799,206.125931 M278.156799,206.125931 L274.148926,200.114151 M274.148926,200.114151 L280.745056,203.062958 M280.745056,203.062958 L283.333344,200.000000 M283.333344,200.000000 L282.098785,198.148148 M282.098785,198.148148 L278.275940,199.359268 M278.275940,199.359268 L280.864197,196.296295 M280.864197,196.296295 L279.629639,194.444443 M279.629639,194.444443 L275.806793,195.655548 M275.806793,195.655548 L275.991821,202.878448 M275.991821,202.878448 L271.983948,196.866669 M271.983948,196.866669 L268.161102,198.077774 M268.161102,198.077774 L270.749390,195.014816 M270.749390,195.014816 L266.741516,189.003036 M266.741516,189.003036 L273.337646,191.951843 M273.337646,191.951843 L275.925934,188.888885 M275.925934,188.888885 L274.691376,187.037033 M274.691376,187.037033 L270.868530,188.248154 M270.868530,188.248154 L273.456787,185.185181 M273.456787,185.185181 L272.222229,183.333328 M272.222229,183.333328 L268.399384,184.544434 M268.399384,184.544434 L268.584412,191.767319 M268.584412,191.767319 L264.576569,185.755554 M264.576569,185.755554 L260.753723,186.966660 M260.753723,186.966660 L260.938751,194.189545 M260.938751,194.189545 L273.534088,197.480728 M273.534088,197.480728 L261.123749,201.412445 M261.123749,201.412445 L261.308777,208.635330 M261.308777,208.635330 L257.300903,202.623550 M257.300903,202.623550 L244.890579,206.555267 M244.890579,206.555267 L253.293060,196.611786 M253.293060,196.611786 L249.285202,190.600006 M249.285202,190.600006 L245.462357,191.811111 M245.462357,191.811111 L245.647369,199.034012 M245.647369,199.034012 L241.639526,193.022232 M241.639526,193.022232 L237.816681,194.233337 M237.816681,194.233337 L240.404953,191.170380 M240.404953,191.170380 L236.397110,185.158600 M236.397110,185.158600 L242.993225,188.107407 M242.993225,188.107407 L245.581497,185.044449 M245.581497,185.044449 L241.573639,179.032669 M241.573639,179.032669 L229.163330,182.964371 M229.163330,182.964371 L237.565796,173.020905 M237.565796,173.020905 L233.557938,167.009125 M233.557938,167.009125 L240.154053,169.957932 M240.154053,169.957932 L248.556519,160.014465 M248.556519,160.014465 L246.750183,172.906754 M246.750183,172.906754 L253.346298,175.855560 M253.346298,175.855560 L255.934570,172.792603 M255.934570,172.792603 L251.926712,166.780823 M251.926712,166.780823 L258.522827,169.729630 M258.522827,169.729630 L261.111115,166.666672 M261.111115,166.666672 L259.876556,164.814819 M259.876556,164.814819 L256.053711,166.025925 M256.053711,166.025925 L258.641968,162.962967 M258.641968,162.962967 L257.407410,161.111115 M257.407410,161.111115 L253.584564,162.322235 M253.584564,162.322235 L253.769577,169.545135 M253.769577,169.545135 L249.761734,163.533340 M249.761734,163.533340 L245.938889,164.744461 M245.938889,164.744461 L248.527161,161.681488 M248.527161,161.681488 L244.519287,155.669708 M244.519287,155.669708 L251.115433,158.618530 M251.115433,158.618530 L253.703705,155.555557 M253.703705,155.555557 L252.469131,153.703705 M252.469131,153.703705 L248.646301,154.914810 M248.646301,154.914810 L251.234573,151.851852 M251.234573,151.851852 L250.000000,150.000000 M250.000000,150.000000 L248.765427,151.851852 M248.765427,151.851852 L251.353699,154.914810 M251.353699,154.914810 L247.530869,153.703705 M247.530869,153.703705 L246.296295,155.555557 M246.296295,155.555557 L248.884567,158.618530 M248.884567,158.618530 L255.480713,155.669708 M255.480713,155.669708 L251.472839,161.681488 M251.472839,161.681488 L254.061111,164.744461 M254.061111,164.744461 L250.238266,163.533340 M250.238266,163.533340 L246.230408,169.545120 M246.230408,169.545120 L246.415436,162.322235 M246.415436,162.322235 L242.592590,161.111115 M242.592590,161.111115 L241.358017,162.962967 M241.358017,162.962967 L243.946289,166.025925 M243.946289,166.025925 L240.123459,164.814819 M240.123459,164.814819 L238.888885,166.666672 M238.888885,166.666672 L241.477158,169.729630 M241.477158,169.729630 L248.073288,166.780807 M248.073288,166.780807 L244.065430,172.792603 M244.065430,172.792603 L246.653702,175.855560 M246.653702,175.855560 L253.249832,172.906754 M253.249832,172.906754 L251.443481,160.014450 M251.443481,160.014450 L259.845947,169.957932 M259.845947,169.957932 L266.442078,167.009125 M266.442078,167.009125 L262.434204,173.020905 M262.434204,173.020905 L270.836639,182.964401 M270.836639,182.964401 L258.426361,179.032669 M258.426361,179.032669 L254.418503,185.044449 M254.418503,185.044449 L257.006775,188.107407 M257.006775,188.107407 L263.602905,185.158585 M263.602905,185.158585 L259.595032,191.170380 M259.595032,191.170380 L262.183319,194.233337 M262.183319,194.233337 L258.360474,193.022232 M258.360474,193.022232 L254.352631,199.033997 M254.352631,199.033997 L254.537643,191.811111 M254.537643,191.811111 L250.714813,190.600006 M250.714813,190.600006 L246.706955,196.611786 M246.706955,196.611786 L255.109421,206.555267 M255.109421,206.555267 L242.699112,202.623550 M242.699112,202.623550 L238.691254,208.635330 M238.691254,208.635330 L238.876266,201.412445 M238.876266,201.412445 L226.465958,197.480743 M226.465958,197.480743 L239.061279,194.189545 M239.061279,194.189545 L239.246292,186.966660 M239.246292,186.966660 L235.423462,185.755554 M235.423462,185.755554 L231.415604,191.767319 M231.415604,191.767319 L231.600616,184.544434 M231.600616,184.544434 L227.777786,183.333328 M227.777786,183.333328 L226.543213,185.185181 M226.543213,185.185181 L229.131485,188.248154 M229.131485,188.248154 L225.308655,187.037033 M225.308655,187.037033 L224.074081,188.888885 M224.074081,188.888885 L226.662354,191.951843 M226.662354,191.951843 L233.258469,189.003021 M233.258469,189.003021 L229.250626,195.014816 M229.250626,195.014816 L231.838898,198.077774 M231.838898,198.077774 L228.016052,196.866669 M228.016052,196.866669 L224.008194,202.878448 M224.008194,202.878448 L224.193222,195.655548 M224.193222,195.655548 L220.370377,194.444443 M220.370377,194.444443 L219.135803,196.296295 M219.135803,196.296295 L221.724075,199.359268 M221.724075,199.359268 L217.901245,198.148148 M217.901245,198.148148 L216.666672,200.000000 M216.666672,200.000000 L219.254944,203.062958 M219.254944,203.062958 L225.851059,200.114136 M225.851059,200.114136 L221.843216,206.125931 M221.843216,206.125931 L224.431488,209.188889 M224.431488,209.188889 L231.027603,206.240067 M231.027603,206.240067 L229.221268,193.347778 M229.221268,193.347778 L237.623734,203.291260 M237.623734,203.291260 L244.219849,200.342438 M244.219849,200.342438 L240.211990,206.354218 M240.211990,206.354218 L248.614456,216.297699 M248.614456,216.297699 L236.204147,212.365997 M236.204147,212.365997 L232.196289,218.377777 M232.196289,218.377777 L234.784561,221.440735 M234.784561,221.440735 L241.380692,218.491913 M241.380692,218.491913 L237.372833,224.503708 M237.372833,224.503708 L239.961105,227.566666 M239.961105,227.566666 L246.557236,224.617844 M246.557236,224.617844 L244.750900,211.725540 M244.750900,211.725540 L253.153351,221.669037 M253.153351,221.669037 L259.749481,218.720215 M259.749481,218.720215 L257.943146,205.827911 M257.943146,205.827911 L234.723404,202.508530 M234.723404,202.508530 L256.136810,192.935623 M256.136810,192.935623 L254.330475,180.043320 M254.330475,180.043320 L262.732941,189.986801 M262.732941,189.986801 L284.146362,180.413895 M284.146362,180.413895 L271.135376,199.930298 M271.135376,199.930298 L279.537842,209.873779 M279.537842,209.873779 L286.133972,206.924957 M286.133972,206.924957 L284.327637,194.032639 M284.327637,194.032639 L292.730103,203.976151 M292.730103,203.976151 L299.326233,201.027328 M299.326233,201.027328 L295.318390,207.039108 M295.318390,207.039108 L303.720856,216.982590 M303.720856,216.982590 L291.310516,213.050888 M291.310516,213.050888 L287.302673,219.062668 M287.302673,219.062668 L295.705139,229.006149 M295.705139,229.006149 L317.118530,219.433228 M317.118530,219.433228 L304.107605,238.949631 M304.107605,238.949631 L312.510071,248.893112 M312.510071,248.893112 L300.099762,244.961411 M300.099762,244.961411 L287.088806,264.477814 M287.088806,264.477814 L287.689423,241.029709 M287.689423,241.029709 L275.279114,237.098007 M275.279114,237.098007 L271.271271,243.109787 M271.271271,243.109787 L279.673737,253.053268 M279.673737,253.053268 L267.263397,249.121567 M267.263397,249.121567 L263.255554,255.133347 M263.255554,255.133347 L265.843811,258.196320 M265.843811,258.196320 L272.439941,255.247528 M272.439941,255.247528 L268.432098,261.259277 M268.432098,261.259277 L271.020355,264.322235 M271.020355,264.322235 L277.616486,261.373413 M277.616486,261.373413 L275.810150,248.481110 M275.810150,248.481110 L284.212616,258.424622 M284.212616,258.424622 L290.808746,255.475800 M290.808746,255.475800 L286.800903,261.487579 M286.800903,261.487579 L295.203339,271.431061 M295.203339,271.431061 L282.793030,267.499329 M282.793030,267.499329 L278.785187,273.511108 M278.785187,273.511108 L281.373444,276.574066 M281.373444,276.574066 L287.969574,273.625275 M287.969574,273.625275 L283.961731,279.637054 M283.961731,279.637054 L286.549988,282.700012 M286.549988,282.700012 L282.727142,281.488892 M282.727142,281.488892 L278.719299,287.500671 M278.719299,287.500671 L278.904327,280.277802 M278.904327,280.277802 L275.081482,279.066681 M275.081482,279.066681 L271.073639,285.078461 M271.073639,285.078461 L279.476074,295.021942 M279.476074,295.021942 L267.065765,291.090210 M267.065765,291.090210 L263.057922,297.101990 M263.057922,297.101990 L263.242920,289.879120 M263.242920,289.879120 L250.832611,285.947418 M250.832611,285.947418 L263.427948,282.656219 M263.427948,282.656219 L263.612946,275.433350 M263.612946,275.433350 L259.790100,274.222229 M259.790100,274.222229 L255.782257,280.234009 M255.782257,280.234009 L255.967270,273.011139 M255.967270,273.011139 L252.144440,271.800018 M252.144440,271.800018 L248.136581,277.811798 M248.136581,277.811798 L256.539062,287.755280 M256.539062,287.755280 L244.128738,283.823578 M244.128738,283.823578 L240.120880,289.835358 M240.120880,289.835358 L248.523331,299.778839 M248.523331,299.778839 L269.936737,290.205933 M269.936737,290.205933 L256.925781,309.722321 M256.925781,309.722321 L265.328247,319.665802 M265.328247,319.665802 L252.917938,315.734100 M252.917938,315.734100 L239.906998,335.250488 M239.906998,335.250488 L240.507629,311.802368 M240.507629,311.802368 L228.097321,307.870667 M228.097321,307.870667 L224.089462,313.882446 M224.089462,313.882446 L232.491928,323.825928 M232.491928,323.825928 L220.081619,319.894226 M220.081619,319.894226 L216.073761,325.906006 M216.073761,325.906006 L216.258774,318.683105 M216.258774,318.683105 L203.848465,314.751404 M203.848465,314.751404 L216.443787,311.460236 M216.443787,311.460236 L216.628799,304.237335 M216.628799,304.237335 L204.218491,300.305634 M204.218491,300.305634 L191.207565,319.822021 M191.207565,319.822021 L191.808167,296.373932 M191.808167,296.373932 L179.397858,292.442230 M179.397858,292.442230 L191.993195,289.151031 M191.993195,289.151031 L192.593811,265.702911 M192.593811,265.702911 L204.588516,285.859863 M204.588516,285.859863 L217.183853,282.568665 M217.183853,282.568665 L217.368866,275.345764 M217.368866,275.345764 L204.958542,271.414062 M204.958542,271.414062 L217.553879,268.122894 M217.553879,268.122894 L217.738892,260.899994 M217.738892,260.899994 L213.916046,259.688873 M213.916046,259.688873 L209.908188,265.700653 M209.908188,265.700653 L210.093216,258.477783 M210.093216,258.477783 L206.270370,257.266663 M206.270370,257.266663 L202.262527,263.278442 M202.262527,263.278442 L210.664993,273.221924 M210.664993,273.221924 L198.254669,269.290222 M198.254669,269.290222 L194.246826,275.302002 M194.246826,275.302002 L194.431839,268.079102 M194.431839,268.079102 L182.021530,264.147400 M182.021530,264.147400 L194.616852,260.856232 M194.616852,260.856232 L194.801865,253.633331 M194.801865,253.633331 L190.979019,252.422226 M190.979019,252.422226 L186.971161,258.433990 M186.971161,258.433990 L187.156189,251.211105 M187.156189,251.211105 L183.333344,250.000000 M183.333344,250.000000 L182.098770,251.851852 M182.098770,251.851852 L184.687042,254.914810 M184.687042,254.914810 L180.864212,253.703705 M180.864212,253.703705 L179.629639,255.555557 M179.629639,255.555557 L182.217911,258.618530 M182.217911,258.618530 L188.814026,255.669739 M188.814026,255.669739 L184.806168,261.681488 M184.806168,261.681488 L187.394440,264.744446 M187.394440,264.744446 L183.571609,263.533325 M183.571609,263.533325 L179.563751,269.545105 M179.563751,269.545105 L179.748764,262.322235 M179.748764,262.322235 L175.925934,261.111115 M175.925934,261.111115 L174.691360,262.962952 M174.691360,262.962952 L177.279633,266.025909 M177.279633,266.025909 L173.456802,264.814819 M173.456802,264.814819 L172.222229,266.666656 M172.222229,266.666656 L174.810501,269.729614 M174.810501,269.729614 L181.406647,266.780823 M181.406647,266.780823 L177.398773,272.792603 M177.398773,272.792603 L179.987045,275.855560 M179.987045,275.855560 L186.583176,272.906738 M186.583176,272.906738 L184.776840,260.014435 M184.776840,260.014435 L193.179291,269.957947 M193.179291,269.957947 L199.775421,267.009125 M199.775421,267.009125 L195.767563,273.020905 M195.767563,273.020905 L204.170013,282.964386 M204.170013,282.964386 L191.759720,279.032654 M191.759720,279.032654 L187.751862,285.044434 M187.751862,285.044434 L190.340134,288.107391 M190.340134,288.107391 L196.936279,285.158600 M196.936279,285.158600 L192.928406,291.170380 M192.928406,291.170380 L195.516678,294.233337 M195.516678,294.233337 L191.693832,293.022217 M191.693832,293.022217 L187.685974,299.033997 M187.685974,299.033997 L187.871002,291.811127 M187.871002,291.811127 L184.048157,290.600006 M184.048157,290.600006 L180.040314,296.611786 M180.040314,296.611786 L188.442780,306.555267 M188.442780,306.555267 L176.032455,302.623566 M176.032455,302.623566 L172.024612,308.635345 M172.024612,308.635345 L172.209625,301.412445 M172.209625,301.412445 L159.799301,297.480743 M159.799301,297.480743 L172.394623,294.189575 M172.394623,294.189575 L172.579636,286.966675 M172.579636,286.966675 L168.756790,285.755554 M168.756790,285.755554 L164.748932,291.767334 M164.748932,291.767334 L164.933960,284.544464 M164.933960,284.544464 L161.111115,283.333344 M161.111115,283.333344 L159.876541,285.185181 M159.876541,285.185181 L162.464813,288.248138 M162.464813,288.248138 L158.641983,287.037048 M158.641983,287.037048 L157.407410,288.888885 M157.407410,288.888885 L159.995682,291.951843 M159.995682,291.951843 L166.591797,289.003052 M166.591797,289.003052 L162.583939,295.014801 M162.583939,295.014801 L165.172211,298.077759 M165.172211,298.077759 L161.349380,296.866669 M161.349380,296.866669 L157.341537,302.878448 M157.341537,302.878448 L157.526535,295.655548 M157.526535,295.655548 L153.703705,294.444458 M153.703705,294.444458 L152.469131,296.296295 M152.469131,296.296295 L155.057404,299.359253 M155.057404,299.359253 L151.234573,298.148163 M151.234573,298.148163 L150.000000,300.000000 "/>
</svg>
